<svg xmlns="http://www.w3.org/2000/svg" viewBox="0 0 823.24 385.35"><defs><style>.cls-1{fill:#fffdf1;}</style></defs><g id="Layer_2" data-name="Layer 2"><g id="Layer_1-2" data-name="Layer 1"><path class="cls-1" d="M629.57,257.34c3.29,7,12.61,5.35,17.08,4.59a189.77,189.77,0,0,0,22.56-5.83c15.69-4.84,37.1-12.45,63.63-22.61,45-17.26,90-36.21,90.4-36.4l-5.47-13c-.4.17-40.87,17.25-83.33,33.67-24.87,9.62-45.53,17.13-61.41,22.32-17.57,5.75-26.22,7.64-30.39,8.22.87-3.8,3.46-10.44,8.81-19.92,5.12.18,11.61-1.06,19.65-5,19.34-9.49,39.57-25.07,55.5-42.72,9.51-10.54,24.91-30.1,21.28-42.79-.69-2.43-3.91-10.26-16.14-9-25.94,2.63-66.68,51.2-87.25,83.81l-9-.42-38.45,52c-4.2-.4-8.46-.76-12.75-1.09,22.43-41.56,47.8-81.39,66.64-109.59,1.63-1.91,3.26-3.84,4.89-5.77,9.82-11.6,96.1-113.88,103.14-131.72,2.27-5.74-.65-8.86-2-9.94A7.73,7.73,0,0,0,749.68,5c-2.34.74-7.84,2.49-38.21,40.88-20.42,25.81-43.82,58-65.9,90.51-1.89,2.79-3.87,5.73-5.91,8.78-30.53,36-54.91,63.51-71.32,81.16,9.52-17.44,23.57-41.68,41-70.23,17.92-22.43,34.77-44.47,47.64-62.31,23.17-32.13,23.85-37.32,24.18-39.81a7.88,7.88,0,0,0-4.55-8.56c-3.13-1.36-6.45-.63-9.85,2.17-13.63,11.17-55.28,78.13-68.95,100.4L597,149c-18.6,23.22-36.65,44.72-50.85,60.54-9,10-15.34,16.54-19.8,20.82a259.42,259.42,0,0,1,14.86-31.3,40.91,40.91,0,0,0,8.12-2.47c13.46-5.23,31.49-26.3,37.09-43.35,2.25-6.85,2.31-12.6.21-17.14,6.13-.17,11.27-.17,15,0l.81-14c-10.38-.6-30.11.3-52.39,1.83,23.24-40.38,47-81.43,67.57-116.89L605.51,0c-7.32,12.61-38.31,66-72.35,125.19-36.93,2.85-76,6.74-89.57,8.12,30.5-16.06,34.89-21.34,37-23.83,3.41-4.1,3.51-9.22.27-13.07-2.5-3-7.45-6.24-25.26-8.14-11.44-1.21-26.68-1.73-45.29-1.53-20.52.21-44,1.29-68.91,3.12,4.25-5.76,8.37-11.22,12.35-16.32,29.17-37.39,41.79-44.95,45.86-46.47l-4.9-13.18c-16.26,6.05-43.49,38-71.77,77.44-15.68,1.34-31.79,3-48,4.83C215.86,103,71,123.2,0,164.21l7,12.18c47.74-27.57,144.47-51.55,265.39-65.78,13.41-1.58,26.76-3,39.88-4.21-13.16,19-26.29,39.23-38.38,58.74-8.17,13.16-16.64,27.28-25.1,41.9C185.91,234,133.68,255.45,133,255.71l5.3,13c1-.4,43.63-17.58,96.66-37.29C205.24,285.11,178,342.06,167.82,381.89l13.63,3.46c9.4-37,36.62-96.07,73.81-161.37,34.46-12.58,71.45-25.45,103.33-35.14-25.37,14.64-51.29,34.27-63.48,57.86l9.34,9.54a781.8,781.8,0,0,0,68.67-38.6c-12.24,18-14.34,25.22-14.73,29.22a8,8,0,0,0,4.28,8.15c4.62,2.34,9.74-.36,14.6-3.32,4-2.46,9.18-6.08,15.78-11.09,6.05-4.58,13.24-10.27,21.49-17,1,1.61,2,3.32,3.15,5.11,7.38,11.75,17.59,26.22,22.8,31.17a10.64,10.64,0,0,0,5,2.75q-12.48.7-25.25,1.66a1542.46,1542.46,0,0,0-174.73,23.2l-1,.18,2.66,13.81,1-.19a1540.7,1540.7,0,0,1,198.93-24.8c-10.6,19.14-17.5,32.13-18.43,35.1-1.41,4.49.72,7.93,3.45,9.36,5.48,2.85,9.84-1.77,14.05-6.24,3.06-3.24,7.31-8.08,12.62-14.37,5.66-6.71,12.61-15.17,20.76-25.26,27-.82,54.73-.73,82.22.68-14.85,29.14-27.64,58.43-35.38,84.76l12.4,6.16L603.63,279c35.6,3.77,70,10.21,101.16,20.26l4.32-13.38c-27.94-9-60.05-15.67-95.88-19.87l15.93-21.55C627.51,251.2,628.41,254.9,629.57,257.34ZM666,205.93c24.68-34.56,53.57-61.67,67.21-63.05a11.89,11.89,0,0,1,1.19-.07c-.47,3.77-5.1,14.07-18.63,28.95-14.71,16.17-33.23,30.39-50.82,39-1.19.58-2.32,1.08-3.38,1.51Q663.59,209.23,666,205.93ZM554.81,175.87a244.72,244.72,0,0,1,17.46-24.8C568.84,159.68,561.68,169.26,554.81,175.87ZM566,137c-11.74,11.85-26.63,36.79-32.2,46.47a16.85,16.85,0,0,0-2.05,2.72c-17.4,22.47-39.93,51.16-59.22,75.15l-.95,0c18.43-32.75,43.6-76.8,70-122.74C550.14,138,558.39,137.47,566,137ZM270.6,197.66q7.44-12.48,15.27-25.11c15.06-24.29,30.35-47.43,44.71-67.75,27.24-2.22,53-3.57,75.5-3.94,36.57-.6,52.67,1.58,59.5,3.23-11.41,8.39-49.08,29.8-171.51,83.36C286.21,190.89,278.36,194.3,270.6,197.66Zm56.95,30.54c18.68-17.25,44.16-31.29,64.74-40.93C372.29,202.51,346.9,217.51,327.55,228.2ZM380,232.81c5.79-9.17,14.24-20.85,23.08-32.14a69.23,69.23,0,0,0,4.47,10.46C395.06,221.39,386.23,228.24,380,232.81Zm50.44-10.26q-2.76-4.35-4.93-8,3.15-2.62,6.47-5.41c5,2.6,10.53,5.63,16.37,8.9-.43,10.74-1.37,20.5-2.58,26.54C441.78,239.47,436.15,231.53,430.44,222.55Zm13.09-23.24q2.49-2.12,4.93-4.22c0,.2,0,.39,0,.58.07,2.11.11,4.24.14,6.39Q446,200.62,443.53,199.31Zm18.33-34.43c-9.15,8-20.13,17.51-31.38,27.07l-.47.4-2.18-1c-9-4.24-14.1-5.88-17.81-5.51l-4.53-4.45c13-5.55,21.95-8.61,22.24-8.71L424.94,159c-15.15,1.17-38.93,7-66.53,15.23,37.19-16.89,62.82-29.31,80.58-38.5l1.26,12.08c.74-.08,42.6-4.41,84.4-7.81-15.53,27-31.34,54.64-45.52,79.61-4.61-2.73-10.34-6.11-16.49-9.64.08-5.56,0-10.66-.11-14.73-.22-6.65,3.85-13.84,9.28-20.36,13.47-11.79,22.83-20.15,23-20.3l-8.54-11.13a133.79,133.79,0,0,0-18.68,15.32Q464.48,161.84,461.86,164.88Zm-11.5,97.47c.26-.09.51-.19.77-.3,4.85-2.18,8.48-8,10.4-29.37.2-2.25.37-4.55.52-6.85,3.38,2,6.78,4,10.15,6-6.15,10.85-11.89,21.05-17.07,30.3Zm44.18-5.93c5.15-6.46,10.29-13,15.21-19.2-.95,5.27-.31,8.13.63,10.2a8.22,8.22,0,0,0,8.93,4.72c3.15-.46,8.43-1.25,35.35-31l1.23-1.37c-16.58,30.43-15.88,33.69-15.26,36.57a7.42,7.42,0,0,0,3.27,4.73q-25.54-.76-52.9-.21Zm71.89,5.6c-4.83-.27-9.73-.49-14.67-.68,2.66-1.31,6.19-4.27,12.32-10.33,5.92-5.86,13.94-14.36,23.84-25.25l3.45-3.8c-7.65,13-15.25,26.56-22.5,40.2Zm-9.26,56.17c6-13.67,12.75-27.63,20-41.52q5.08.36,10.15.78Z"/></g></g></svg>