<svg xmlns="http://www.w3.org/2000/svg" viewBox="0 0 808.23 327.68"><defs><style>.cls-1{opacity:0.2;}.cls-2{fill:#42423f;}.cls-3{fill:#fffdf1;}</style></defs><g id="Layer_2" data-name="Layer 2"><g id="Layer_1-2" data-name="Layer 1"><g class="cls-1"><path class="cls-2" d="M252.19,310.71c-1.75,9.55,23.26,24,25.25,13.06,1.48-8.09,17.92-104.27,22.24-132.39,9-2.55,50.75-11.21,62.54-12.75,3-.38,4.14-2,4.25-4.07q12.82,2.56,25.79,4.35l-93.15,56.15c-9.65,6.62,12,26.13,20.76,19.42,21.56-16.48,80.92-48.77,80.92-48.77-2.21,10.34-4.3,20.71-6.65,31C392,246,418.05,256.07,419.4,249.8q5.37-25,10.73-50.08c3.28,1.54,6.82,2.28,9.77.84l5.45-2.64s-10.93,44.83-11.53,51.33c-1.5,16.11,22.13,28.16,26.34,25.73l74.41-42.88c.33,9.58,19.25,20,29.8,16.07,5.39-2,26.94-22.7,34-28.18q-1,7.6-2,15.22c.41,8.88,14.63,23.73,19.78,20,19.26-14,38.54-29.45,59.56-41.29-.06.83-.44,16.26,2.67,22.67,2.36,4.87,15.1,18,22.21,11.54,28.5-25.73,61.19-46.33,96.3-61.89,10.26-4.55-9.37-24.91-18.62-20.81a382.92,382.92,0,0,0-77.48,46c.14-1.9.62-8.28.72-9.56,2.51-.91,5-1.76,7.6-2.53,2.24-.67,2.47-3.47,2.65-5.42.3-3.23-5.32-11.89-8.74-12.11q.54-7.38,1.1-14.75a347.23,347.23,0,0,1,74-14.45c6.36-.54,5.44-7.26,2.72-11.28-3.35-5-10.23-11-16.79-10.47a369,369,0,0,0-58,9.6l2.73-36.35a391.08,391.08,0,0,1,94.55-14.93c6.48-.22,5.3-7.46,2.72-11.28-3.51-5.19-10.09-10.69-16.79-10.46A406.2,406.2,0,0,0,709.1,78.27c.2-8.39-22-15-22.52-8.4l-1.11,14.79a404.78,404.78,0,0,0-41.54,15.12c1.25-7.52,9.56-56.25,12.46-73.09C658,17.11,633,2.75,631.13,13.63c-9.75,56.6-19.49,113.2-27.72,170-14.8,7.85-28.24,18.29-40.89,29.32.82-5.73,25.53-100.62,29-114.69,2.56-10.49-8.57-19.23-17.87-22.7C565,72.39,507,96.37,496.1,101c1-4.43,2.27-8.81,3.08-13.28,1.53-8.49-15.92-16.36-18.34-16.72,10.56-1.32,65.22-5.44,82-5.67,6.71-.1-2.18-20.29-16.34-20.58-27.46-.56-56.74,2.3-84,5.71.65-.68,1-4.28,1.74-8.93.88-5.49-23.58-13.75-26.05-8.43-1.69,3.63-4.37,18.6-5.09,21.95-21.74,3.66-94.62,18.1-114.51,28.64-2,1.08,10,23.28,20.77,19.41,28.74-10.31,58.52-17.52,88.48-23.51-.81,3.81-12.56,58.6-17.61,82.18-2-.31-4-.45-6-.63-12.93-1.1-94.25-18.72-94.88-18.93,21.15-13.59,86.89-20.16,105.8-19.66,5.78.15-6.64-18.08-17.38-18.61-29.4-1.44-58.95.87-86.86,10,.1-.71,3.8-21.23,4.07-30.89.7-24.73-20.58-46.38-28.5-35.14s-15.62,22.8-22.4,34.78c-3.27-1.58-6.95-2.52-10.25-1.19a69.81,69.81,0,0,0-16,9.24c-4-3.1-9-5-13.52-4.91q-23,.67-45.84,3.6a26.41,26.41,0,0,0-6.94-5c-4-2-11.88-4.69-13.53,1.47q-.93,3.48-1.88,7c-34.77,6.12-112.81,25.91-145.24,50.7-8.64,6.61,12.11,24.14,20.77,19.42A464.84,464.84,0,0,1,149,118.17q-11.64,41.16-24.77,81.88l-4.11,4.37c-1.53,1.63-.33,5.18.51,6.69h0c-2,6-15.21,44.69-19.86,58-3.61,10.32,23,20.2,25.26,13.06,6.84-21.51,15.31-44.76,21.84-64.08,17.27-14.27,81.48-77.69,84.34-80.9-9.39,21.29-19.79,42.21-28.68,63.72q-6.69,3.28-13.27,6.79c-5.22,2.78-1.15,9.7,5,14.66-2.93,8.33-5,16.93-7.72,25.33-3.42,10.47,21.28,22.24,24.56,14.95,7.18-15.95,15.58-31.28,22.59-47.28,10.94-5,35.25-14.44,36.18-14.77C268.21,218,252.51,309,252.19,310.71ZM167.8,153.77c1.38-4.72,9.29-32.44,11.8-41.61,4.17-.67,24.91-3.38,31.11-4C209.8,109.14,174,147.14,167.8,153.77Zm114-25.29a10.74,10.74,0,0,0-2,9.27c.13.52-3.34,27.37-4.53,35.23q-13.12,3.87-26,8.51c10.92-25.79,35.73-76.75,35.9-77.06Q283.5,116.46,281.79,128.48Zm21.77,37.12c.38-2.56.75-5.13,1.12-7.69l4.72,1.56c3.07,1,6.17,2,9.27,3Q311.08,163.9,303.56,165.6Zm149.31-.15q-8.56,3.78-17.05,7.74,3.68-17.17,7.36-34.36l.07.07c3.29,2.95,9,6.95,14.17,6.92Zm-6.22-42.79q3.51-16.43,7-32.86,1.67-7.74,3.32-15.47,9.45-1.5,18.95-2.74a4.48,4.48,0,0,0-2,3l-9.25,39.91Q455.64,118.55,446.65,122.66Zm90.68,76.75c-.55.13-49.75,28.38-73.84,42.27.2-.87,12-51.93,13.51-58.29q26-11.38,52.61-21.27c2.18-.81,2.47-3.59,2-5.46-.64-2.84-3.11-5.91-5.19-7.78-4.38-3.93-11.47-8.46-17.63-6.18q-12.37,4.59-24.62,9.52l4.58-19.76c17-7.5,71.61-29.65,71.82-29.73C559.47,106.11,537.61,197.53,537.33,199.41Zm143.4-51.62q-13.87,4.54-27.37,10.21c-10.26,4.32,9.27,24.74,18.62,20.81q3.3-1.4,6.62-2.71l-.51,6.82c-18.44,7.42-35.37,18.36-51.69,30.1-.14-1.75,1.31-9.63,1.64-11.92,3.46-1.7,19.45-12.1,21.24-14,6.63-3.95-9.89-16.68-17.2-13.34q3.82-25.15,7.94-50.26c3.83,2.45,8,3.68,10.94,2.29q15.94-7.43,32.43-13.38Q682.06,130.07,680.73,147.79Z"/></g><path class="cls-3" d="M243.43,301c-1.75,9.54,23.26,24,25.25,13,1.48-8.08,17.92-104.26,22.24-132.39,9-2.55,50.75-11.2,62.53-12.74,3-.39,4.15-2.05,4.26-4.07q12.82,2.55,25.79,4.35l-93.15,56.15c-9.66,6.61,12,26.12,20.76,19.42C332.67,228.26,392,196,392,196c-2.21,10.35-4.3,20.72-6.65,31-2.1,9.24,23.91,19.32,25.26,13.06Q416,215,421.37,190c3.28,1.55,6.82,2.29,9.77.85q2.72-1.34,5.45-2.64S425.66,233,425.05,239.51c-1.5,16.12,22.14,28.16,26.35,25.74l74.41-42.89c.33,9.58,19.25,20,29.8,16.08,5.39-2,26.94-22.71,34-28.19q-1,7.6-2,15.22c.41,8.88,14.63,23.73,19.78,20C626.7,231.42,646,216,667,204.17c0,.82-.43,16.26,2.68,22.66,2.36,4.88,15.1,18,22.21,11.55,28.5-25.74,61.19-46.34,96.3-61.9,10.26-4.55-9.37-24.9-18.62-20.8a382.87,382.87,0,0,0-77.48,46c.14-1.9.62-8.27.72-9.56,2.5-.91,5-1.76,7.6-2.52,2.24-.67,2.46-3.47,2.65-5.42.3-3.23-5.32-11.9-8.75-12.11l1.11-14.76a347.85,347.85,0,0,1,74-14.45c6.36-.53,5.44-7.25,2.72-11.27-3.35-5-10.23-11-16.79-10.47a366.54,366.54,0,0,0-58,9.6l2.73-36.36a391.57,391.57,0,0,1,94.55-14.93c6.47-.22,5.3-7.46,2.72-11.27C793.9,63,787.32,57.49,780.62,57.71a406.22,406.22,0,0,0-80.28,10.83c.2-8.39-22-15-22.52-8.41l-1.11,14.8a401.13,401.13,0,0,0-41.55,15.12c1.26-7.53,9.56-56.26,12.46-73.09C649.28,7.37,624.24-7,622.37,3.9c-9.75,56.59-19.49,113.2-27.72,170-14.8,7.86-28.24,18.3-40.89,29.33.82-5.73,25.52-100.63,29-114.69,2.56-10.5-8.57-19.24-17.87-22.7-8.6-3.21-66.58,20.76-77.51,25.35,1-4.42,2.27-8.8,3.07-13.28,1.53-8.48-15.91-16.35-18.33-16.71,10.56-1.33,65.22-5.44,82-5.68,6.71-.09-2.18-20.29-16.34-20.58-27.46-.56-56.74,2.31-84,5.72.66-.68,1-4.29,1.75-8.93.88-5.5-23.58-13.75-26.05-8.43-1.69,3.63-4.37,18.6-5.09,21.94-21.74,3.67-94.62,18.11-114.51,28.64-2,1.08,10,23.28,20.77,19.42C359.33,83,389.1,75.81,419.07,69.82c-.82,3.81-12.56,58.59-17.61,82.17-2-.3-3.95-.44-6-.62-12.93-1.11-94.25-18.73-94.88-18.93,21.15-13.59,86.89-20.17,105.8-19.67,5.78.16-6.64-18.07-17.38-18.6-29.41-1.44-58.95.87-86.86,10,.09-.7,3.8-21.23,4.07-30.89.7-24.72-20.58-46.38-28.5-35.13S262.09,61,255.31,72.93c-3.27-1.58-6.95-2.52-10.25-1.19A70.14,70.14,0,0,0,229,81c-4-3.1-9-5-13.52-4.91q-23,.68-45.84,3.61a26.45,26.45,0,0,0-6.94-5c-4-1.95-11.88-4.68-13.53,1.48q-.93,3.48-1.88,7C112.53,89.19,34.49,109,2.06,133.77c-8.64,6.6,12.11,24.13,20.77,19.42a464.46,464.46,0,0,1,117.44-44.75q-11.64,41.16-24.77,81.87l-4.11,4.37c-1.53,1.64-.33,5.19.51,6.7h0c-2,6-15.21,44.69-19.86,58-3.61,10.32,23,20.2,25.26,13.06,6.84-21.51,15.31-44.76,21.84-64.08,17.27-14.28,81.48-77.7,84.34-80.9-9.39,21.29-19.79,42.21-28.69,63.72q-6.68,3.29-13.26,6.79c-5.22,2.78-1.15,9.7,5.05,14.65-2.93,8.33-5,16.93-7.72,25.34-3.42,10.46,21.28,22.24,24.56,14.94C210.61,237,219,221.62,226,205.62c10.94-5,35.25-14.44,36.17-14.77C259.45,208.22,243.75,299.22,243.43,301ZM159,144c1.38-4.72,9.29-32.45,11.8-41.61,4.17-.68,24.91-3.39,31.11-4C201,99.41,165.28,137.4,159,144Zm114-25.3a10.72,10.72,0,0,0-2,9.27c.13.53-3.34,27.38-4.53,35.23q-13.12,3.87-26,8.52C251.41,146,276.22,95,276.39,94.7Q274.74,106.71,273,118.74Zm21.77,37.13c.38-2.57.75-5.13,1.12-7.7l4.71,1.57q4.62,1.53,9.27,3Q302.33,154.17,294.8,155.87Zm149.31-.16q-8.57,3.79-17.05,7.74,3.68-17.17,7.36-34.35l.07.06c3.29,3,9,7,14.17,6.92Zm-6.22-42.78q3.51-16.44,7-32.86,1.65-7.74,3.32-15.48,9.45-1.48,18.95-2.74a4.53,4.53,0,0,0-2,3l-9.25,39.92Q446.88,108.81,437.89,112.93Zm90.68,76.75c-.55.13-49.75,28.37-73.84,42.26.2-.86,12-51.93,13.51-58.28q26-11.39,52.61-21.27c2.17-.81,2.47-3.59,2-5.46-.64-2.85-3.11-5.91-5.19-7.78-4.38-3.94-11.48-8.47-17.63-6.18q-12.37,4.59-24.62,9.52L480,122.73c17-7.5,71.61-29.66,71.82-29.74C550.71,96.38,528.85,187.79,528.57,189.68ZM672,138.06q-13.87,4.55-27.37,10.21c-10.26,4.32,9.27,24.74,18.62,20.8q3.3-1.38,6.62-2.7l-.51,6.82c-18.44,7.41-35.37,18.36-51.69,30.1-.14-1.76,1.31-9.63,1.64-11.93,3.46-1.69,19.45-12.1,21.24-14,6.63-3.95-9.89-16.68-17.2-13.34q3.82-25.15,7.94-50.26c3.83,2.46,8,3.69,10.94,2.29q15.93-7.41,32.43-13.38Q673.3,120.35,672,138.06Z"/></g></g></svg>