<svg xmlns="http://www.w3.org/2000/svg" viewBox="0 0 603.65 431.8"><defs><style>.cls-1{fill:#f6eff8;}.cls-2{fill:#fff;}</style></defs><g id="Layer_2" data-name="Layer 2"><g id="Layer_1-2" data-name="Layer 1"><path class="cls-1" d="M602.52,181.36a13.39,13.39,0,0,0,.21-1.53,13.61,13.61,0,0,0-22.43-11.37c-.09.07-5.83,5-14,11.66,3.14-5.43,6-10.76,8.28-15.67,4.84-10.23,8.64-20.57,5.83-28.6.42-5.36-.81-10.2-4.79-14a15,15,0,0,0-10.65-4.3c-6.88,0-12.82,4.41-15.06,6.08a74.3,74.3,0,0,0-13.59,14c18.54-34.14,43.46-82.25,48.94-103.8.7-2.74,2.34-9.23.38-15.22.34-5.23-.69-11.72-6.89-15.92A15.27,15.27,0,0,0,570.14,0c-6.15,0-11,3.54-12.85,4.87-2.55,1.86-9.35,6.79-28.19,46.73q-1.8,3.8-3.64,7.82A14.24,14.24,0,0,0,514,48a14.88,14.88,0,0,0-2.57-.23c-3.34,0-8.2,1.17-12.46,6.74-5.32,7-14.52,29.31-27.37,66.45a14.52,14.52,0,0,0-1.48-.08,13.47,13.47,0,0,0-2.37.21c-5.14.91-12.86,2.85-23.37,5.88,7.93-26.48,16.1-53.62,24-79.67a13.47,13.47,0,0,0-.54-9.36,13.61,13.61,0,0,0-26.38-6.53c-2.7,8.9-16.62,54.94-32,106.32-9.33,3-18.71,6.09-27.4,9a15.77,15.77,0,0,0-1-6.83,15.67,15.67,0,0,0-6.22-15c-3.76-2.79-8.5-4-15.37-4a91.2,91.2,0,0,0-11.48.84A331.41,331.41,0,0,0,311.73,129c-9.66,2.39-20.05,5.21-31.05,8.41,12.78-25.86,18.78-30.1,19.06-30.28a13.63,13.63,0,0,0,4.92-16.75,13.6,13.6,0,0,0-20.9-13.89c-6.6,4.4-13.83,13.84-22.09,28.85a459.87,459.87,0,0,0-20.91,44.55c-10.94,3.64-22,7.49-33.09,11.48-45,16.25-154.77,59-203.4,104.85a13.67,13.67,0,0,0-3.15,15.33,14.12,14.12,0,0,0-.23,2.17,13.5,13.5,0,0,0,3.69,9.73,13.6,13.6,0,0,0,19.24.57c31.19-29.41,100.79-65.11,191-98,3.14-1.14,6.3-2.27,9.45-3.4-3.24,9-6.44,18.16-9.51,27.34-3.79,11.33-7.51,23-11.08,34.78-43,31.81-78.26,57.06-78.61,57.3a13.65,13.65,0,0,0-4.55,16.51,13.6,13.6,0,0,0,21.21,13.67c.24-.17,19.48-13.78,46.6-32.16-8.42,33.62-16,71.48-16.51,99.82a13.61,13.61,0,0,0,.95,5.24c0,.93-.06,1.85-.07,2.76A13.59,13.59,0,0,0,186,431.79h.23a13.68,13.68,0,0,0,13.61-13.38c.32-18.94,4.59-46.41,12.12-79a14.25,14.25,0,0,0,.77,2.22,13.64,13.64,0,0,0,12.42,8,13.4,13.4,0,0,0,5.59-1.21l.75-.33a1231.08,1231.08,0,0,1,131.55-50.07c-1.73,6.86-1.83,8.21-1.89,9.1a15.17,15.17,0,0,0,1,6.7c-.09.63-.12,1-.14,1.31a14,14,0,0,0,10.41,14.95,14.28,14.28,0,0,0,3.52.45c8.41,0,12.62-7.27,15.13-11.61,1.85-3.21,4.33-7.87,7.36-13.85,2.78-5.49,6.12-12.28,9.94-20.21,15.27-4,30.19-7.56,44.58-10.52a381,381,0,0,0-7.09,53,13.56,13.56,0,0,0,1,5.94c0,.69-.09,1.38-.12,2.06a13.56,13.56,0,0,0,10.68,14,14.17,14.17,0,0,0,2.91.31,13.53,13.53,0,0,0,12.64-8.6l29.68-75a437.94,437.94,0,0,1,53.39-3.52c8.67,0,17.12.33,25.11,1,.37,0,.74,0,1.1,0a13.6,13.6,0,0,0,12.47-19,12.26,12.26,0,0,0,.21-1.48,13.6,13.6,0,0,0-12.47-14.65c-6.84-.55-14-.88-21.3-1q2.58-1.95,5.29-4c16.69-12.86,32.26-26.18,32.4-26.3a13.61,13.61,0,0,0,3.62-15.76ZM382.77,213a30.62,30.62,0,0,1,2.53-7c2.55-3.57,4.86-6.82,6.82-9.59-2.15,7.26-4.19,14.2-6.12,20.77l-2.39-.73C383.33,215.25,383.05,214.11,382.77,213Zm-87.19,65.09q.06.77.15,1.44a15.14,15.14,0,0,0,1.21,4.21q-6.65,2.44-12.89,4.83C287.54,285.47,291.45,281.94,295.58,278.09Zm28-115.72c-16.31,13.59-40.8,33-77.56,60.79,5.27-15.12,10.73-29.83,16.08-43.27,19.49-6.25,37.55-11.5,53.74-15.61C318.57,163.59,321.15,163,323.58,162.37Zm14.42,107q2.69-3.31,5.74-7.21c1.31,1.25,2.74,2.59,4.24,4Q342.94,267.75,338,269.37Zm15.54-75.05c0-.25-.06-.5-.09-.75l.85-.3ZM226.37,284.71q11.94-7.84,22.91-14.87A75.35,75.35,0,0,0,245.93,280a13.52,13.52,0,0,0,.73,8.72,13.56,13.56,0,0,0,4.51,12.91c-14.15,5.85-25,10.67-31.78,13.73l-.67.31q-.53.24-1,.51C220.33,306,223.23,295.51,226.37,284.71Z"/><path class="cls-2" d="M593.41,175.14a5.61,5.61,0,0,0-7.9-.61c-.14.13-14.8,12.68-30.89,25.11-22.88,17.68-32.4,22.56-36,23.89-.24-2.95.52-9,3.54-18.22a9.87,9.87,0,0,0,1.22.07c7.17,0,14.94-6.42,24.16-19.87A249.28,249.28,0,0,0,566.46,153c6.67-14.12,7.71-21.49,3.6-25.45-5.27-5.07-12.88.58-15.38,2.44-12.19,9.06-24.48,30.77-29.2,39.68-2.62,5-5,9.87-7.15,14.64a5.6,5.6,0,0,0-8.84,2.2l-21.42,54.11c-2.61.38-5.23.77-7.88,1.19,5.94-22.86,12.9-45.24,19.59-65,4.9-8.48,9.93-17.34,15-26.35,12.74-22.77,54.86-99.18,61.86-126.69.84-3.3,2.8-11-2.37-14.53C569.39,6,563.82,10,562,11.34c-10.77,7.83-38.18,68.05-58.47,121.76-4.13,10.94-9,24.26-14,39.06C483.35,182.85,477.35,193,471.87,202c-4.5,7.41-8.16,13.28-11.13,17.93,4.11-15.43,10.95-38.32,20-65.92,9.79-20.68,18.81-40.85,25.51-57,12.08-29.16,11.66-33.31,11.46-35.3a6.27,6.27,0,0,0-5.1-5.8c-2.67-.49-5.11.69-7.24,3.48-6.8,8.91-20.94,48.69-29.68,74.42l0-.26a5.61,5.61,0,0,0-6.49-4.55c-8.16,1.44-23.29,5.76-40.29,11,10.63-35.56,21.51-71.74,31-103a5.6,5.6,0,1,0-10.72-3.25C445.77,44.88,431.54,92,416,144.09c-28.11,9-57.71,19.16-68,22.72,20.71-18.05,23.14-22.94,24.29-25.25,1.88-3.8,1-7.8-2.2-10.18-2.48-1.84-6.92-3.48-21.07-1.68a324.7,324.7,0,0,0-35.4,7.1c-15.87,3.94-33.84,9.07-52.85,15.06,2.23-5.25,4.43-10.24,6.58-14.92,15.76-34.33,24.16-42.51,27-44.43a5.6,5.6,0,1,0-6.22-9.32c-11.5,7.67-26.75,37.4-41.44,73.19-11.92,3.92-24.12,8.13-36.37,12.56C165.9,185,57.29,227.27,9.76,272.08a5.6,5.6,0,1,0,7.69,8.15c32-30.12,102.56-66.45,193.71-99.65,10.1-3.68,20.2-7.22,30.14-10.57-6.71,17.18-13.19,35.23-19,52.58-3.92,11.7-7.9,24.2-11.77,37.08-43.84,32.46-80.4,58.64-80.85,59a5.6,5.6,0,0,0,6.5,9.13c.68-.48,30.6-21.62,68.1-46.63-13.23,47.07-24,96.23-24.51,129a5.61,5.61,0,0,0,5.51,5.7h.1a5.61,5.61,0,0,0,5.6-5.51c.51-30.37,10.78-81.2,27.64-138.65,24.42-16.07,50.73-32.83,73.68-46.19-17,16-33.49,36-38.62,56.5a5.61,5.61,0,0,0,9,5.69c1.36-1.13,24.5-20.2,46.16-42.52-6.19,16.17-6.49,22.18-6.06,25.35A6.37,6.37,0,0,0,307.6,276c4,1,7.49-2.06,10.71-5.25,2.66-2.64,6-6.4,10.2-11.49,3.85-4.66,8.38-10.39,13.54-17.13,1.06,1.07,2.18,2.2,3.39,3.39,7.87,7.75,18.44,17.1,23.39,20a8.5,8.5,0,0,0,4.37,1.22q-9.56,2.83-19.28,5.91a1231.84,1231.84,0,0,0-131.22,50l-.7.32a5.6,5.6,0,0,0,2.3,10.71,5.46,5.46,0,0,0,2.29-.49l.74-.33A1226.67,1226.67,0,0,1,377,277.17c-4.71,16.77-7.68,28.11-7.86,30.58a6.06,6.06,0,0,0,4.4,6.63c4.76,1.21,7.3-3.17,9.75-7.41,1.78-3.08,4.18-7.61,7.15-13.46,3.15-6.24,7-14.07,11.46-23.38,20.62-5.54,41.93-10.52,63.32-14.45-5.83,24.87-10.14,49.76-11.34,72.1a5.59,5.59,0,0,0,4.4,5.77,5.44,5.44,0,0,0,1.2.13,5.6,5.6,0,0,0,5.2-3.54l31.41-79.37c29.23-3.86,58-5.34,84.86-3.18a5.6,5.6,0,1,0,.89-11.17c-24.15-1.94-51.31-1.09-81.07,2.54l6.62-16.72c0,4.36,1,7.69,2.91,10.11a7.84,7.84,0,0,0,5.48,2.85c3,.28,7.76-.48,20.06-8.31,6.69-4.26,15.06-10.25,24.88-17.82,16.61-12.79,31.91-25.9,32.07-26A5.6,5.6,0,0,0,593.41,175.14Zm-62.93,9.62c9.24-19.64,20.71-37,29.2-44.38A106.59,106.59,0,0,1,555,151.05a246.06,246.06,0,0,1-16.67,28.12c-5,7.37-8.7,11.12-11.15,13Q528.64,188.68,530.48,184.76Zm33.78-158.7c-2,6-5.81,15.45-12.91,30.48C544.7,70.63,536.07,87.66,526,106.61,542.62,65.87,556.89,37.67,564.26,26.06ZM471.12,140a5.55,5.55,0,0,0,3-1.59c-1.52,4.52-2.81,8.43-3.8,11.43l-.46,1c-10.16,21.42-20.22,41.4-28.33,56.26-5.12,9.4-8.86,15.64-11.53,19.78a207.25,207.25,0,0,1,5.78-27,32.09,32.09,0,0,0,5.84-3.4c9.48-6.53,19.6-26.16,20.81-40.41.49-5.72-.51-10.19-3-13.33C464.18,141.5,468.17,140.56,471.12,140Zm-29.05,39.38a191.6,191.6,0,0,1,9-22.43C450,164.29,446.18,173,442.07,179.42Zm1.58-32.18c-6.93,11.34-13.9,33.41-16.45,41.94a13.44,13.44,0,0,0-1.08,2.48c-9.38,20.61-21.58,47-32.15,69.12l-.73.2C395,254.8,397,248.15,399,241.12a5.6,5.6,0,0,0,3-10.35c6.84-23.39,14.78-50.2,23-77.79C431.51,150.93,437.8,149,443.65,147.24ZM391.4,227.19c-4.07-1.28-9.14-2.84-14.55-4.45-1-4.33-1.94-8.27-2.79-11.41-1.38-5.11.45-11.44,3.47-17.48,8.28-11.61,14-19.81,14.1-20a5.59,5.59,0,0,0-3.87-8.75c7.74-2.59,16-5.33,24.34-8C405,180.92,397.82,205.23,391.4,227.19ZM225.7,248.41q3.48-11,7.24-22.27c7.22-21.59,14.84-42.34,22.25-60.72,20.71-6.71,40.44-12.49,57.81-16.9,28.24-7.17,41.11-8.42,46.73-8.4-7.31,8.6-32.6,32.1-117.7,96.07C236.56,240.3,231.1,244.38,225.7,248.41Zm49.75,13.24c11.33-16.8,28.51-32.35,42.7-43.6C305.44,233.53,288.5,249.81,275.45,261.65Zm41.52-6c2.8-8.17,7.21-18.78,12-29.15a55.74,55.74,0,0,0,5.38,7.29C326.55,244,321,250.92,317,255.61Zm37.22-17.2c-2-1.91-3.72-3.69-5.29-5.32,1.31-1.75,2.65-3.54,4-5.39,4.34,1.11,9.2,2.44,14.33,3.9a148.9,148.9,0,0,1,2.86,21.06C366.08,249.45,360.27,244.33,354.19,238.41Zm5.9-20.42,3-4.17.12.44c.44,1.62.86,3.27,1.27,4.93ZM368,187.93c-5.63,7.88-12.39,17.27-19.36,26.74l-.3.41-1.87-.41c-5.25-1.1-8.88-1.62-11.56-1.54a5.59,5.59,0,0,0-2.7-5.13l-.39-.22c6.61-4.71,11-7.46,11.15-7.56a5.61,5.61,0,0,0-4.67-10.1c-11.53,3.69-28.9,12.56-48.79,24,22.87-17.69,39.31-31,51.17-41a5.51,5.51,0,0,0,.3,2.07,5.61,5.61,0,0,0,5.29,3.76,5.7,5.7,0,0,0,1.85-.31c.38-.14,15.38-5.37,35-12l-.15.14a106.59,106.59,0,0,0-11.67,15.31C370.06,184.11,369,186,368,187.93Zm9,77.68a6.3,6.3,0,0,0,.53-.37c3.37-2.58,5.11-7.76,2.69-24.68-.26-1.78-.55-3.59-.86-5.4,3,.9,6,1.83,9,2.77-2.78,9.54-5.36,18.5-7.68,26.62Zm33.16-12.69c2.81-6,5.6-11.93,8.28-17.67.23,4.26,1.24,6.35,2.35,7.78a6.54,6.54,0,0,0,7.79,2c2.36-.94,6.31-2.51,21.73-30.52l.7-1.28c-7.27,26.63-6.13,29-5.12,31.15a5.87,5.87,0,0,0,3.42,3.06q-20,4.09-41.08,9.54C408.81,255.66,409.45,254.31,410.1,252.92Zm56.77-8.84c-3.81.68-7.67,1.41-11.55,2.17,1.82-1.43,3.94-4.08,7.23-8.78S470,226.38,475,218.3c-2.42,8.39-4.75,16.95-6.92,25.56ZM470.51,285c1.9-10.36,4.18-20.9,6.73-31.43,2-.33,4.07-.66,6.1-1Z"/></g></g></svg>